<?xml version="1.0" encoding="utf-8"?>
<!-- Generator: Adobe Illustrator 22.0.1, SVG Export Plug-In . SVG Version: 6.00 Build 0)  -->
<svg version="1.1" id="Layer_1" xmlns="http://www.w3.org/2000/svg" xmlns:xlink="http://www.w3.org/1999/xlink" x="0px" y="0px"
	 viewBox="0 0 612 792" style="enable-background:new 0 0 612 792;" xml:space="preserve">
<style type="text/css">
	.st0{fill:none;stroke:#B3B3B3;stroke-miterlimit:10;}
	.st1{fill:none;stroke:#000000;stroke-miterlimit:10;}
	.st2{font-family:'MyriadPro-Regular';}
	.st3{font-size:6px;}
	.st4{font-size:12px;}
</style>
<g>
	<line class="st0" x1="332" y1="366.9" x2="315.6" y2="383.2"/>
	<g>
		<line class="st1" x1="293.6" y1="366.9" x2="277.2" y2="383.2"/>
		<text transform="matrix(1 0 0 1 277.2223 389.2501)" class="st2 st3">1:(1,1)/1</text>
		<line class="st0" x1="277.2" y1="366.9" x2="277.2" y2="383.2"/>
		<line class="st0" x1="293.6" y1="383.2" x2="277.2" y2="383.2"/>
	</g>
	<g>
		<text transform="matrix(1 0 0 1 315.6113 389.2501)" class="st2 st3">0:(1,1)/0</text>
		<line class="st0" x1="315.6" y1="366.9" x2="315.6" y2="383.2"/>
		<line class="st0" x1="332" y1="383.2" x2="315.6" y2="383.2"/>
	</g>
	<text transform="matrix(1 0 0 1 245.7228 378.0555)" class="st2 st4">sides(</text>
	<text transform="matrix(1 0 0 1 296.611 378.0555)" class="st2 st4">)={</text>
	<text transform="matrix(1 0 0 1 368.111 378.0555)" class="st2 st4">}</text>
	<text transform="matrix(1 0 0 1 336.111 378.0555)" class="st2 st4">,</text>
	<line class="st0" x1="315.6" y1="366.9" x2="332" y2="366.9"/>
	<line class="st0" x1="332" y1="383.2" x2="332" y2="366.9"/>
	<circle cx="315.6" cy="383.2" r="1.6"/>
	<line class="st0" x1="363.4" y1="366.9" x2="347" y2="383.2"/>
	<g>
		<text transform="matrix(1 0 0 1 347.0278 389.2501)" class="st2 st3">0:(2,2)/0</text>
		<line class="st0" x1="347" y1="366.9" x2="347" y2="383.2"/>
		<line class="st0" x1="363.4" y1="383.2" x2="347" y2="383.2"/>
	</g>
	<line class="st0" x1="347" y1="366.9" x2="363.4" y2="366.9"/>
	<line class="st0" x1="363.4" y1="383.2" x2="363.4" y2="366.9"/>
	<circle cx="363.4" cy="366.9" r="1.6"/>
</g>
<line class="st1" x1="332" y1="403.1" x2="315.6" y2="419.5"/>
<g>
	<line class="st0" x1="293.6" y1="403.1" x2="277.2" y2="419.5"/>
	<text transform="matrix(1 0 0 1 277.2223 425.5001)" class="st2 st3">1:(1,1)/1</text>
	<line class="st0" x1="277.2" y1="403.1" x2="277.2" y2="419.5"/>
	<line class="st1" x1="293.6" y1="419.5" x2="277.2" y2="419.5"/>
</g>
<text transform="matrix(1 0 0 1 315.6113 425.5001)" class="st2 st3">2:(1,1)/0</text>
<line class="st0" x1="315.6" y1="403.1" x2="315.6" y2="419.5"/>
<line class="st1" x1="332" y1="419.5" x2="315.6" y2="419.5"/>
<text transform="matrix(1 0 0 1 234.3829 414.3055)" class="st2 st4">side_of(</text>
<text transform="matrix(1 0 0 1 296.611 414.3055)" class="st2 st4">)={</text>
<text transform="matrix(1 0 0 1 368.111 414.3055)" class="st2 st4">}</text>
<text transform="matrix(1 0 0 1 336.111 414.3055)" class="st2 st4">,</text>
<line class="st0" x1="315.6" y1="403.1" x2="332" y2="403.1"/>
<line class="st1" x1="332" y1="419.5" x2="332" y2="403.1"/>
<line class="st1" x1="363.4" y1="403.1" x2="347" y2="419.5"/>
<text transform="matrix(1 0 0 1 347.0278 425.5001)" class="st2 st3">2:(1,0)/1</text>
<line class="st1" x1="347" y1="403.1" x2="347" y2="419.5"/>
<line class="st0" x1="363.4" y1="419.5" x2="347" y2="419.5"/>
<line class="st1" x1="347" y1="403.1" x2="363.4" y2="403.1"/>
<line class="st0" x1="363.4" y1="419.5" x2="363.4" y2="403.1"/>
</svg>
