<?xml version="1.0" encoding="utf-8"?>
<!-- Generator: Adobe Illustrator 22.0.1, SVG Export Plug-In . SVG Version: 6.00 Build 0)  -->
<svg version="1.1" id="Layer_1" xmlns="http://www.w3.org/2000/svg" xmlns:xlink="http://www.w3.org/1999/xlink" x="0px" y="0px"
	 viewBox="0 0 612 792" style="enable-background:new 0 0 612 792;" xml:space="preserve">
<style type="text/css">
	.st0{fill:#FFFFFF;stroke:#B3B3B3;stroke-miterlimit:10;}
	.st1{fill:none;stroke:#B3B3B3;stroke-miterlimit:10;}
	.st2{fill:none;stroke:#000000;stroke-miterlimit:10;}
	.st3{font-family:'MyriadPro-Regular';}
	.st4{font-size:6px;}
	.st5{font-size:7px;}
</style>
<g>
	<rect x="186.3" y="353.2" class="st0" width="28.9" height="28.9"/>
	<rect x="215.2" y="353.2" class="st0" width="28.9" height="28.9"/>
	<rect x="244.1" y="353.2" class="st0" width="28.9" height="28.9"/>
	<rect x="186.3" y="382.1" class="st0" width="28.9" height="28.9"/>
	<rect x="244.1" y="382.1" class="st0" width="28.9" height="28.9"/>
	<rect x="186.3" y="411" class="st0" width="28.9" height="28.9"/>
	<rect x="215.2" y="411" class="st0" width="28.9" height="28.9"/>
	<rect x="244.1" y="411" class="st0" width="28.9" height="28.9"/>
	<line class="st1" x1="215.2" y1="411" x2="186.3" y2="439.9"/>
	<line class="st1" x1="273" y1="353.2" x2="244.1" y2="382.1"/>
	<line class="st2" x1="244.1" y1="382.1" x2="215.2" y2="411"/>
	<line class="st1" x1="215.2" y1="439.9" x2="273" y2="382.1"/>
	<line class="st1" x1="186.3" y1="411" x2="244.1" y2="353.2"/>
	<line class="st1" x1="244.1" y1="439.9" x2="273" y2="411"/>
	<line class="st1" x1="186.3" y1="382.1" x2="215.2" y2="353.2"/>
	<text transform="matrix(1 0 0 1 188.3333 437.8889)" class="st3 st4">(0,0)</text>
	<text transform="matrix(1 0 0 1 217.2221 437.8889)" class="st3 st4">(1,0)</text>
	<text transform="matrix(1 0 0 1 246.111 437.8889)" class="st3 st4">(2,0)</text>
	<text transform="matrix(1 0 0 1 188.3333 409.0002)" class="st3 st4">(0,1)</text>
	<text transform="matrix(1 0 0 1 217.2221 409.0002)" class="st3 st4">(1,1)</text>
	<text transform="matrix(1 0 0 1 246.111 409.0002)" class="st3 st4">(2,1)</text>
	<text transform="matrix(1 0 0 1 188.3333 380.1112)" class="st3 st4">(0,2)</text>
	<text transform="matrix(1 0 0 1 217.2221 380.1112)" class="st3 st4">(1,2)</text>
	<text transform="matrix(1 0 0 1 246.111 380.1112)" class="st3 st4">(2,2)</text>
	<line class="st2" x1="215.2" y1="382.1" x2="215.2" y2="411"/>
	<line class="st2" x1="244.1" y1="411" x2="215.2" y2="411"/>
</g>
<g>
	<line class="st1" x1="393.3" y1="431.9" x2="376.9" y2="431.9"/>
	<line class="st1" x1="393.3" y1="431.9" x2="393.3" y2="415.5"/>
	<g>
		<text transform="matrix(1 0 0 1 287.2747 367.8608)" class="st3 st5">1 type of 0-simplex:</text>
	</g>
	<line class="st1" x1="368" y1="356.5" x2="351.6" y2="372.9"/>
	<text transform="matrix(1 0 0 1 351.6274 378.861)" class="st3 st4">0:(1,1)/0</text>
	<line class="st1" x1="351.6" y1="356.5" x2="351.6" y2="372.9"/>
	<line class="st1" x1="368" y1="372.9" x2="351.6" y2="372.9"/>
	<g>
		<text transform="matrix(1 0 0 1 280.1975 396.7499)" class="st3 st5">3 types of 1-simplices:</text>
	</g>
	<line class="st1" x1="368" y1="385.4" x2="351.6" y2="401.7"/>
	<text transform="matrix(1 0 0 1 351.6274 407.7501)" class="st3 st4">1:(1,1)/0</text>
	<line class="st1" x1="351.6" y1="385.4" x2="351.6" y2="401.7"/>
	<line class="st2" x1="368" y1="401.7" x2="351.6" y2="401.7"/>
	<line class="st2" x1="393.3" y1="385.4" x2="376.9" y2="401.7"/>
	<text transform="matrix(1 0 0 1 376.9329 407.7501)" class="st3 st4">1:(1,1)/1</text>
	<line class="st1" x1="376.9" y1="385.4" x2="376.9" y2="401.7"/>
	<line class="st1" x1="393.3" y1="401.7" x2="376.9" y2="401.7"/>
	<line class="st1" x1="418.6" y1="385.4" x2="402.2" y2="401.7"/>
	<text transform="matrix(1 0 0 1 402.2385 407.7501)" class="st3 st4">1:(1,1)/2</text>
	<line class="st2" x1="402.2" y1="385.4" x2="402.2" y2="401.7"/>
	<line class="st1" x1="418.6" y1="401.7" x2="402.2" y2="401.7"/>
	<g>
		<text transform="matrix(1 0 0 1 280.1975 426.8886)" class="st3 st5">2 types of 2-simplices:</text>
	</g>
	<text transform="matrix(1 0 0 1 351.6274 437.8889)" class="st3 st4">2:(1,1)/0</text>
	<line class="st1" x1="351.6" y1="415.5" x2="351.6" y2="431.9"/>
	<text transform="matrix(1 0 0 1 376.9329 437.8889)" class="st3 st4">2:(1,1)/1</text>
	<line class="st1" x1="351.6" y1="415.5" x2="368" y2="415.5"/>
	<line class="st2" x1="368" y1="415.5" x2="351.6" y2="431.9"/>
	<line class="st2" x1="368" y1="431.9" x2="351.6" y2="431.9"/>
	<line class="st2" x1="368" y1="431.9" x2="368" y2="415.5"/>
	<line class="st2" x1="376.9" y1="415.5" x2="376.9" y2="431.9"/>
	<line class="st2" x1="376.9" y1="415.5" x2="393.3" y2="415.5"/>
	<line class="st2" x1="393.3" y1="415.5" x2="376.9" y2="431.9"/>
</g>
</svg>
